<svg width="36" height="40" viewBox="0 0 36 40" fill="none" xmlns="http://www.w3.org/2000/svg">
<path d="M34.8748 28.3227L30.5557 25.8271L34.2021 23.6555C34.7883 23.3731 34.9697 22.5859 34.6363 22.0072C34.2969 21.4146 33.5644 21.2896 33.0084 21.6136L28.1468 24.4612L20.4203 19.9653L28.1467 15.5157L33.0084 18.3586C33.1602 18.4697 33.3555 18.5345 33.5728 18.5345C33.9848 18.5345 34.3539 18.3401 34.6363 17.9697C34.9618 17.3816 34.7882 16.6038 34.202 16.3214L30.5557 14.1498L34.8747 11.6542C35.4377 11.3301 35.6313 10.6031 35.309 10.0058C35.0012 9.43168 34.2395 9.2326 33.6593 9.5706L29.3185 12.0894L29.2537 7.7463C29.2435 7.07493 28.7328 6.53317 28.06 6.53317C27.3874 6.53317 26.8613 7.11657 26.8664 7.7463L26.9095 13.4784L19.2266 17.928V8.89917L24.0665 6.13959C24.6315 5.82009 24.8777 5.07463 24.5439 4.49129C24.2049 3.89863 23.5091 3.72263 22.916 4.05606L19.2266 6.13964V1.21308C19.2266 0.541703 18.6839 0 18.0112 0C17.3384 0 16.8175 0.541703 16.8175 1.21308V6.18586L12.9976 4.056C12.4026 3.72726 11.7252 3.91245 11.3914 4.49123C11.0525 5.08389 11.2632 5.81084 11.847 6.13953L16.8175 8.94081V17.8817L8.96063 13.3488L9.00416 7.74624C9.06945 7.11657 8.50501 6.53311 7.83226 6.53311H7.78874C7.15946 6.53311 6.60205 7.07487 6.59508 7.74624L6.55155 11.9597L2.31961 9.52884C1.72878 9.18622 0.999541 9.38992 0.691644 9.95944C0.369353 10.5614 0.53604 11.2698 1.12596 11.6124L5.40143 14.0849L1.66817 16.3213C1.08237 16.6038 0.89946 17.3909 1.25603 17.9697C1.48566 18.3447 1.82001 18.5345 2.27602 18.5345C2.51446 18.5345 2.71308 18.4743 2.90524 18.3586L7.78868 15.474L15.6239 19.9653L7.78868 24.5028L2.90524 21.6136C2.31904 21.271 1.56341 21.4331 1.25597 22.0072C0.933677 22.6045 1.1087 23.3222 1.66806 23.6555L5.40137 25.8687L1.12584 28.3644C0.537354 28.707 0.346561 29.4293 0.69153 30.0174C0.93282 30.4248 1.25603 30.624 1.71164 30.624C1.82001 30.624 2.03713 30.5591 2.31961 30.448L6.55155 28.0172L6.59508 32.2306C6.60205 32.902 7.15946 33.4206 7.78874 33.4206H7.83226C8.50501 33.4206 9.00924 32.8603 9.00416 32.1843L8.96063 26.5864L16.8175 22.0952V30.9897L11.847 33.7909C11.2539 34.1243 11.0464 34.8513 11.3914 35.4393C11.6326 35.8514 11.9558 36.0505 12.4114 36.0505C12.6286 36.0505 12.8286 36.0135 12.9976 35.9162L16.8175 33.7492V38.8054C16.8175 39.4767 17.3384 39.9999 18.0112 39.9999C18.6839 39.9999 19.2266 39.4767 19.2266 38.8054V33.8325L22.916 35.9162C23.0849 36.0134 23.2849 36.0505 23.4804 36.0505C23.9577 36.0505 24.3096 35.856 24.5439 35.4393C24.8735 34.8559 24.6606 34.1243 24.0665 33.7909L19.2266 31.0777V22.0488L26.9095 26.4984L26.8664 32.1843C26.8608 32.8603 27.3873 33.4206 28.0601 33.4206C28.7328 33.4206 29.2435 32.902 29.2537 32.2306L29.3185 27.8644L33.6593 30.4063C33.8269 30.5035 34.0501 30.536 34.289 30.536C34.7447 30.536 35.0789 30.3462 35.3089 29.9711C35.6652 29.3923 35.4378 28.6469 34.8748 28.3227Z" fill="black"/>
</svg>
