<svg width="70" height="70" viewBox="0 0 70 70" fill="none" xmlns="http://www.w3.org/2000/svg">
<path d="M63.0759 37.6073C61.8655 35.5656 56.5222 32.8852 55.6063 32.4477L39.4713 21.5773L38.1763 7.21559C37.9838 6.31143 36.8755 1.80518 34.0901 1.80518C31.2347 1.80518 30.2868 6.15684 30.1701 6.77226L28.7176 22.2656L13.9826 32.5818C13.0026 33.0864 8.0501 35.6852 6.93593 37.6248C5.93551 39.3748 6.16301 44.3477 6.21843 45.3277C6.23885 45.6981 6.43426 46.0364 6.74343 46.2406C7.05551 46.4389 7.4376 46.4827 7.7876 46.3573L29.0326 38.4823L30.8963 57.4668C30.8963 57.7002 30.8993 57.9306 30.908 58.1552C29.0209 59.1177 24.7247 61.4569 23.7243 63.3469C23.2518 64.2481 23.4443 66.1498 23.6018 67.2027C23.6543 67.5439 23.8526 67.8473 24.1501 68.0252C24.3338 68.1389 24.5438 68.1973 24.7568 68.1973C24.8851 68.1973 25.0134 68.1739 25.1359 68.1331L32.4043 65.6248H35.7672L43.2222 67.9698C43.5488 68.0689 43.9018 68.031 44.1905 67.8473C44.4793 67.6635 44.6776 67.3689 44.7272 67.0335C44.9022 65.8844 45.0218 64.3531 44.6018 63.5685C43.508 61.5443 38.783 59.1031 36.7268 58.1143L39.1418 37.9514L62.2768 45.5727C62.618 45.6864 63.0001 45.6339 63.3034 45.4239C63.6038 45.2198 63.7905 44.8814 63.808 44.5168C63.8634 43.2831 63.9859 39.1385 63.0759 37.6073ZM38.8297 35.3906C38.713 35.3498 38.5876 35.3293 38.4651 35.3293H38.1384C37.5463 35.3293 37.0505 35.7698 36.9805 36.3589L34.3934 58.0269C34.3934 58.2252 34.3701 58.4235 34.3351 58.6189C34.2447 59.141 34.5188 59.6573 35.0001 59.8789C37.7359 61.1331 41.8834 63.4489 42.5134 64.6039C42.5484 64.7206 42.5572 64.9831 42.5484 65.3098L36.298 63.3439C36.1843 63.3089 36.0647 63.2885 35.948 63.2885H32.2088C32.0805 63.2885 31.9522 63.3119 31.8297 63.3527L25.7718 65.441C25.7455 64.9539 25.7513 64.5602 25.7893 64.4289C26.3843 63.3031 30.1497 61.101 32.6318 59.8994C33.0722 59.6864 33.3318 59.2198 33.2851 58.7327C33.2443 58.3243 33.2326 57.8985 33.2268 57.3443L31.2113 36.741C31.1763 36.3823 30.9751 36.0585 30.6688 35.866C30.4822 35.7464 30.2663 35.6852 30.0505 35.6852C29.9134 35.6852 29.7763 35.7114 29.6451 35.7581L8.49635 43.6039C8.4701 41.5068 8.61593 39.3893 8.9601 38.7827C9.52593 37.7968 12.8597 35.7785 15.1813 34.5798L30.4938 23.8698C30.7768 23.6743 30.9547 23.3623 30.9868 23.021L32.4713 7.11351C32.7484 5.73684 33.5155 4.14143 34.0872 4.14143C34.5538 4.14143 35.4755 5.78643 35.8693 7.56851L37.2022 22.4143C37.2401 22.8373 37.5493 23.1873 37.9372 23.3593L54.4426 34.466C56.8138 35.6239 60.4363 37.7327 61.0663 38.7973C61.3551 39.2814 61.5009 41.0577 61.5038 42.8631L38.8297 35.3906Z" fill="black"/>
</svg>
