<svg width="70" height="70" viewBox="0 0 70 70" fill="none" xmlns="http://www.w3.org/2000/svg">
<path d="M66.6909 58.8847C62.4662 58.8847 58.228 58.8847 54.0034 58.8847C45.3217 58.8847 36.6401 58.8847 27.9584 58.8847C20.8354 58.8847 13.726 58.8847 6.60297 58.8847C5.50922 58.8847 4.41547 58.8847 3.32172 58.8847C3.66352 59.2265 4.00532 59.5683 4.34711 59.9101C4.34711 56.5605 4.34711 53.2109 4.34711 49.8476C4.34711 48.5351 4.34711 47.2226 4.34711 45.9101C4.34711 43.1757 5.26313 40.4687 6.95844 38.3222C8.81782 35.9843 11.4428 34.4531 14.3549 33.8789C15.3666 33.6875 16.4057 33.6875 17.4311 33.6875C20.4252 33.6875 23.433 33.6875 26.4272 33.6875C34.5209 33.6875 42.6147 33.6875 50.7221 33.6875C51.5698 33.6875 52.4174 33.6875 53.2788 33.6875C55.2748 33.6875 57.2163 34.0976 59.0073 35C61.5913 36.3125 63.683 38.5683 64.7768 41.248C65.5014 43.039 65.6791 44.8711 65.6791 46.7851C65.6791 51.1464 65.6791 55.5214 65.6791 59.8828C65.6791 61.2089 67.7299 61.2089 67.7299 59.8828C67.7299 56.5332 67.7299 53.1836 67.7299 49.8203C67.7299 48.5078 67.7299 47.1953 67.7299 45.8828C67.7299 42.998 66.8549 40.1406 65.2143 37.7754C62.4389 33.7558 57.8998 31.623 53.0737 31.623C50.394 31.623 47.7143 31.623 45.0346 31.623C36.7905 31.623 28.5327 31.623 20.2885 31.623C17.7729 31.623 15.2163 31.4726 12.769 32.1289C6.63032 33.7695 2.36469 39.5664 2.32368 45.8554C2.29633 50.5312 2.32368 55.207 2.32368 59.8691C2.32368 60.4296 2.78852 60.8945 3.34907 60.8945C7.57368 60.8945 11.812 60.8945 16.0366 60.8945C24.7182 60.8945 33.3998 60.8945 42.0815 60.8945C49.2045 60.8945 56.3139 60.8945 63.437 60.8945C64.5307 60.8945 65.6245 60.8945 66.7182 60.8945C68.017 60.9355 68.017 58.8847 66.6909 58.8847Z" fill="black"/>
<path d="M3.58214 51.3927C7.80675 50.422 12.1681 48.9591 16.5431 49.67C19.0724 50.0802 21.4513 50.8868 24.0626 50.9688C26.6466 51.0372 29.0939 50.3673 31.5958 49.8204C33.6603 49.3555 35.8478 49.3555 37.9396 49.7247C38.9103 49.8888 39.8673 50.1485 40.8243 50.3673C43.9825 51.0919 47.0724 51.1192 50.2443 50.3946C51.1603 50.1895 52.0626 49.9571 52.9786 49.7657C55.0568 49.3419 57.2443 49.3692 59.3224 49.7657C61.0587 50.0938 62.7677 50.5587 64.4903 50.9415C65.1466 51.0919 65.7892 51.2423 66.4454 51.3927C67.7306 51.6934 68.2775 49.711 66.9923 49.4102C62.7403 48.4259 58.3927 47.0177 53.9767 47.5372C51.4474 47.838 49.0411 48.7403 46.4845 48.8907C43.9005 49.0411 41.4806 48.3848 38.9923 47.838C36.9005 47.3731 34.7267 47.3048 32.5939 47.5782C31.4317 47.7286 30.297 48.0157 29.1485 48.2755C27.8087 48.5899 26.4825 48.8497 25.1017 48.9044C23.4884 48.9727 21.9161 48.7677 20.3439 48.3985C17.295 47.7012 14.3419 47.1407 11.1974 47.6055C9.28331 47.879 7.39659 48.4122 5.52355 48.836C4.70324 49.0274 3.88292 49.2188 3.06261 49.3966C1.75011 49.7247 2.29698 51.6934 3.58214 51.3927Z" fill="black"/>
<path d="M6.65829 38.418C6.65829 32.088 6.65829 25.7442 6.65829 19.4141C6.65829 14.2462 11.7169 11.1153 16.4474 11.1153C18.6349 11.1153 20.8223 11.1153 23.0098 11.1153C31.377 11.1153 39.7579 11.1153 48.1251 11.1153C50.0255 11.1153 51.9258 11.1016 53.8262 11.1153C56.8067 11.1427 59.9376 12.4278 61.7833 14.8341C62.918 16.3106 63.3419 17.9923 63.3419 19.8243C63.3419 26.0177 63.3419 32.2247 63.3419 38.418C63.3419 39.7442 65.3926 39.7442 65.3926 38.418C65.3926 32.088 65.3926 25.7442 65.3926 19.4141C65.3926 13.2891 59.7325 9.29696 54.0313 9.07821C52.1036 8.99618 50.1622 9.07821 48.2344 9.07821C39.8673 9.07821 31.4864 9.07821 23.1192 9.07821C20.9044 9.07821 18.6759 9.07821 16.461 9.07821C10.8009 9.07821 5.08603 12.7833 4.62119 18.7716C4.53915 19.7559 4.60751 20.7677 4.60751 21.752C4.60751 23.7618 4.60751 25.7716 4.60751 27.7813C4.60751 31.2677 4.60751 34.7403 4.60751 38.2266C4.60751 38.295 4.60751 38.3634 4.60751 38.4317C4.60751 39.7442 6.65829 39.7442 6.65829 38.418Z" fill="black"/>
<path d="M31.4317 31.6641C28.1231 31.6641 24.8145 31.6641 21.5059 31.6641C20.002 31.6641 18.4981 31.6641 16.9942 31.6641C16.5294 31.6641 16.1602 31.4727 16.1602 30.9532C16.1602 30.2286 16.1602 29.4903 16.1602 28.7657C16.1602 27.084 16.1602 25.3887 16.1602 23.7071C16.1602 23.1055 16.7071 23.0645 17.1583 23.0645C17.7872 23.0645 18.4298 23.0645 19.0587 23.0645C22.9552 23.0645 26.8516 23.0645 30.7481 23.0645C31.2677 23.0645 32.0196 22.9551 32.0606 23.7071C32.1016 24.459 32.0606 25.2247 32.0606 25.9766C32.0606 27.2618 32.0606 28.5333 32.0606 29.8184C32.0606 30.379 32.3067 31.6094 31.4317 31.6641C30.1192 31.7325 30.1055 33.7833 31.4317 33.7149C32.9356 33.6329 34.1251 32.5118 34.1251 30.9805C34.1251 30.2833 34.1251 29.586 34.1251 28.8887C34.1251 27.1661 34.1251 25.4434 34.1251 23.7071C34.1251 22.2442 32.9083 21 31.4317 21C31.0626 21 30.7071 21 30.338 21C28.4239 21 26.5098 21 24.5958 21C22.5587 21 20.5216 21 18.4845 21C16.8575 21 15.0391 20.8633 14.3009 22.7227C14.0411 23.379 14.1231 24.1172 14.1231 24.8008C14.1231 25.8536 14.1231 26.9063 14.1231 27.959C14.1231 28.8614 14.1231 29.7501 14.1231 30.6524C14.1231 31.7735 14.4786 32.7032 15.4493 33.3458C16.2833 33.8926 17.6231 33.7149 18.5802 33.7149C20.2618 33.7149 21.9571 33.7149 23.6387 33.7149C26.2364 33.7149 28.8341 33.7149 31.4317 33.7149C32.7579 33.7149 32.7579 31.6641 31.4317 31.6641Z" fill="black"/>
<path d="M53.1974 31.6641C49.8888 31.6641 46.5802 31.6641 43.2716 31.6641C41.7677 31.6641 40.2638 31.6641 38.7599 31.6641C38.295 31.6641 37.9259 31.4727 37.9259 30.9532C37.9259 30.2286 37.9259 29.4903 37.9259 28.7657C37.9259 27.084 37.9259 25.3887 37.9259 23.7071C37.9259 23.1055 38.4727 23.0645 38.9239 23.0645C39.5528 23.0645 40.1954 23.0645 40.8243 23.0645C44.7208 23.0645 48.6173 23.0645 52.5138 23.0645C53.0333 23.0645 53.7852 22.9551 53.8263 23.7071C53.8673 24.459 53.8263 25.2247 53.8263 25.9766C53.8263 27.2618 53.8263 28.5333 53.8263 29.8184C53.8399 30.379 54.0724 31.6094 53.1974 31.6641C51.8849 31.7325 51.8712 33.7833 53.1974 33.7149C54.7013 33.6329 55.8907 32.5118 55.8907 30.9805C55.8907 30.2833 55.8907 29.586 55.8907 28.8887C55.8907 27.1661 55.8907 25.4434 55.8907 23.7071C55.8907 22.2442 54.6739 21 53.1974 21C52.8282 21 52.4727 21 52.1036 21C50.1895 21 48.2755 21 46.3614 21C44.3243 21 42.2872 21 40.2501 21C38.6231 21 36.8048 20.8633 36.0665 22.7227C35.8067 23.379 35.8888 24.1172 35.8888 24.8008C35.8888 25.8536 35.8888 26.9063 35.8888 27.959C35.8888 28.8614 35.8888 29.7501 35.8888 30.6524C35.8888 31.7735 36.2442 32.7032 37.2149 33.3458C38.0489 33.8926 39.3888 33.7149 40.3458 33.7149C42.0274 33.7149 43.7227 33.7149 45.4044 33.7149C48.002 33.7149 50.5997 33.7149 53.1974 33.7149C54.5235 33.7149 54.5235 31.6641 53.1974 31.6641Z" fill="black"/>
</svg>
