<svg width="50" height="50" viewBox="0 0 50 50" fill="none" xmlns="http://www.w3.org/2000/svg">
<path d="M49.1667 10.8333H30.8333C30.3731 10.8333 30 11.2064 30 11.6666V31.6666H25.8333V30.8333H26.6667C27.1269 30.8333 27.5 30.4602 27.5 30C27.5 29.5398 27.1269 29.1666 26.6667 29.1666H18.3333C17.8731 29.1666 17.5 29.5398 17.5 30C17.5 30.4602 17.8731 30.8333 18.3333 30.8333H19.1667V31.6666H10.8333V30.8333H11.6667C12.1269 30.8333 12.5 30.4602 12.5 30C12.5 29.5398 12.1269 29.1666 11.6667 29.1666H3.33333C2.87312 29.1666 2.5 29.5398 2.5 30C2.5 30.4602 2.87312 30.8333 3.33333 30.8333H4.16667V31.6666H0.833333C0.373125 31.6666 0 32.0398 0 32.5V49.1666C0 49.6269 0.373125 50 0.833333 50H49.1667C49.6269 50 50 49.6269 50 49.1666V11.6666C50 11.2064 49.6269 10.8333 49.1667 10.8333ZM20.8333 30.8333H24.1667V31.6666H20.8333V30.8333ZM5.83333 30.8333H9.16667V31.6666H5.83333V30.8333ZM13.3333 48.3333H1.66667V38.3333H13.3333V48.3333ZM13.3333 36.6666H1.66667V33.3333H13.3333V36.6666ZM30 48.3333H15V33.3333H30V48.3333ZM48.3333 48.3333H31.6667V25.8333H48.3333V48.3333ZM48.3333 24.1666H31.6667V12.5H48.3333V24.1666Z" fill="black"/>
<path d="M17.5001 46.6667H27.5001C27.9603 46.6667 28.3334 46.2935 28.3334 45.8333V35.8333C28.3334 35.3731 27.9603 35 27.5001 35H17.5001C17.0399 35 16.6667 35.3731 16.6667 35.8333V45.8333C16.6667 46.2935 17.0399 46.6667 17.5001 46.6667ZM18.3334 36.6667H26.6667V45H18.3334V36.6667Z" fill="black"/>
<path d="M33.3333 23.3333C33.7935 23.3333 34.1667 22.9602 34.1667 22.5V19.1666C34.1667 18.7064 33.7935 18.3333 33.3333 18.3333C32.8731 18.3333 32.5 18.7064 32.5 19.1666V22.5C32.5 22.9602 32.8731 23.3333 33.3333 23.3333Z" fill="black"/>
<path d="M33.3333 31.6667C33.7935 31.6667 34.1667 31.2936 34.1667 30.8334V27.5C34.1667 27.0398 33.7935 26.6667 33.3333 26.6667C32.8731 26.6667 32.5 27.0398 32.5 27.5V30.8334C32.5 31.2936 32.8731 31.6667 33.3333 31.6667Z" fill="black"/>
<path d="M1.96444 14.8063C2.11465 14.9317 2.30413 15.0002 2.49985 15H27.4999C27.9601 15.0006 28.3337 14.6281 28.3344 14.1679C28.3348 13.9723 28.2661 13.7827 28.1407 13.6325L19.8074 3.6325C19.6487 3.4426 19.4139 3.33302 19.1665 3.33333H18.3332V0.833333C18.3332 0.373125 17.9601 0 17.4999 0H12.4999C12.0396 0 11.6665 0.373125 11.6665 0.833333V3.33333H10.8332C10.5858 3.33302 10.351 3.4426 10.1924 3.6325L1.85902 13.6325C1.56402 13.9857 1.61121 14.5113 1.96444 14.8063ZM13.3332 1.66667H16.6665V3.33333H13.3332V1.66667ZM11.224 5H18.7757L25.7207 13.3333H4.27902L11.224 5Z" fill="black"/>
</svg>
