<svg width="40" height="40" viewBox="0 0 40 40" fill="none" xmlns="http://www.w3.org/2000/svg">
<path d="M36.8748 28.3227L32.5557 25.8271L36.2021 23.6555C36.7883 23.3731 36.9697 22.5859 36.6363 22.0072C36.2969 21.4146 35.5644 21.2896 35.0084 21.6136L30.1468 24.4612L22.4203 19.9653L30.1467 15.5157L35.0083 18.3586C35.1602 18.4697 35.3555 18.5345 35.5728 18.5345C35.9848 18.5345 36.3539 18.3401 36.6363 17.9697C36.9618 17.3816 36.7882 16.6038 36.202 16.3214L32.5557 14.1498L36.8747 11.6542C37.4377 11.3301 37.6313 10.6031 37.309 10.0058C37.0012 9.43168 36.2395 9.2326 35.6593 9.5706L31.3185 12.0894L31.2537 7.7463C31.2435 7.07493 30.7328 6.53317 30.06 6.53317C29.3874 6.53317 28.8613 7.11657 28.8664 7.7463L28.9095 13.4784L21.2266 17.928V8.89917L26.0665 6.13959C26.6315 5.82009 26.8777 5.07463 26.5439 4.49129C26.2049 3.89863 25.5091 3.72263 24.916 4.05606L21.2266 6.13964V1.21308C21.2266 0.541703 20.6839 0 20.0112 0C19.3384 0 18.8175 0.541703 18.8175 1.21308V6.18586L14.9976 4.056C14.4026 3.72726 13.7252 3.91245 13.3914 4.49123C13.0525 5.08389 13.2632 5.81084 13.847 6.13953L18.8175 8.94081V17.8817L10.9606 13.3488L11.0042 7.74624C11.0694 7.11657 10.505 6.53311 9.83226 6.53311H9.78874C9.15946 6.53311 8.60205 7.07487 8.59508 7.74624L8.55155 11.9597L4.31961 9.52884C3.72878 9.18622 2.99954 9.38992 2.69164 9.95944C2.36935 10.5614 2.53604 11.2698 3.12596 11.6124L7.40143 14.0849L3.66817 16.3213C3.08237 16.6038 2.89946 17.3909 3.25603 17.9697C3.48566 18.3447 3.82001 18.5345 4.27602 18.5345C4.51446 18.5345 4.71308 18.4743 4.90524 18.3586L9.78868 15.474L17.6239 19.9653L9.78868 24.5028L4.90524 21.6136C4.31904 21.271 3.56341 21.4331 3.25597 22.0072C2.93368 22.6045 3.1087 23.3222 3.66806 23.6555L7.40137 25.8687L3.12584 28.3644C2.53735 28.707 2.34656 29.4293 2.69153 30.0174C2.93282 30.4248 3.25603 30.624 3.71164 30.624C3.82001 30.624 4.03713 30.5591 4.31961 30.448L8.55155 28.0172L8.59508 32.2306C8.60205 32.902 9.15946 33.4206 9.78874 33.4206H9.83226C10.505 33.4206 11.0092 32.8603 11.0042 32.1843L10.9606 26.5864L18.8175 22.0952V30.9897L13.847 33.7909C13.2539 34.1243 13.0464 34.8513 13.3914 35.4393C13.6326 35.8514 13.9558 36.0505 14.4114 36.0505C14.6286 36.0505 14.8286 36.0135 14.9976 35.9162L18.8175 33.7492V38.8054C18.8175 39.4767 19.3384 39.9999 20.0112 39.9999C20.6839 39.9999 21.2266 39.4767 21.2266 38.8054V33.8325L24.916 35.9162C25.0849 36.0134 25.2849 36.0505 25.4804 36.0505C25.9577 36.0505 26.3096 35.856 26.5439 35.4393C26.8735 34.8559 26.6606 34.1243 26.0665 33.7909L21.2266 31.0777V22.0488L28.9095 26.4984L28.8664 32.1843C28.8608 32.8603 29.3873 33.4206 30.0601 33.4206C30.7328 33.4206 31.2435 32.902 31.2537 32.2306L31.3185 27.8644L35.6593 30.4063C35.8269 30.5035 36.0501 30.536 36.289 30.536C36.7447 30.536 37.0789 30.3462 37.3089 29.9711C37.6652 29.3923 37.4378 28.6469 36.8748 28.3227Z" fill="black"/>
</svg>
