<svg width="31" height="30" viewBox="0 0 31 30" fill="none" xmlns="http://www.w3.org/2000/svg">
<path d="M10.5598 1.80005C6.26274 1.80005 2.76654 5.29927 2.76654 9.60005V20.4C2.76654 24.7008 6.26274 28.2 10.5598 28.2H21.3505C25.6475 28.2 29.1437 24.7008 29.1437 20.4V9.60005C29.1437 5.29927 25.6475 1.80005 21.3505 1.80005H10.5598ZM10.5598 3.00005H21.3505C24.9989 3.00005 27.9448 5.94849 27.9448 9.60005V20.4C27.9448 24.0516 24.9989 27 21.3505 27H10.5598C6.9114 27 3.9655 24.0516 3.9655 20.4V9.60005C3.9655 5.94849 6.9114 3.00005 10.5598 3.00005ZM23.1489 6.60005C22.4862 6.60005 21.95 7.13677 21.95 7.80005C21.95 8.46333 22.4862 9.00005 23.1489 9.00005C23.8116 9.00005 24.3479 8.46333 24.3479 7.80005C24.3479 7.13677 23.8116 6.60005 23.1489 6.60005ZM15.9551 8.40005C12.3208 8.40005 9.36084 11.3625 9.36084 15C9.36084 18.6375 12.3208 21.6 15.9551 21.6C19.5895 21.6 22.5494 18.6375 22.5494 15C22.5494 11.3625 19.5895 8.40005 15.9551 8.40005ZM15.9551 9.60005C18.9408 9.60005 21.3505 12.0118 21.3505 15C21.3505 17.9883 18.9408 20.4 15.9551 20.4C12.9694 20.4 10.5598 17.9883 10.5598 15C10.5598 12.0118 12.9694 9.60005 15.9551 9.60005Z" fill="black"/>
</svg>
