<svg width="20" height="15" viewBox="0 0 20 15" fill="none" xmlns="http://www.w3.org/2000/svg">
<path d="M17.4879 0H2.43502C1.09131 0 -0.000976562 1.03793 -0.000976562 2.31478V12.0909C-0.000976562 13.3678 1.09131 14.4057 2.43502 14.4057H17.4838C18.8275 14.4057 19.9198 13.3678 19.9198 12.0909V2.3187C19.9239 1.04185 18.8316 0 17.4879 0ZM18.811 12.0909C18.811 12.7842 18.2175 13.3482 17.4879 13.3482H2.43502C1.70546 13.3482 1.11192 12.7842 1.11192 12.0909V2.3187C1.11192 1.62544 1.70546 1.06143 2.43502 1.06143H17.4838C18.2134 1.06143 18.8069 1.62544 18.8069 2.3187V12.0909H18.811Z" fill="white"/>
<path d="M12.5626 7.08291L17.4346 2.93119C17.6613 2.73535 17.6819 2.40243 17.4759 2.18309C17.2697 1.96767 16.9194 1.94809 16.6886 2.14393L9.97 7.87409L8.65928 6.76173C8.65517 6.75782 8.65105 6.75391 8.65105 6.75C8.62216 6.72255 8.59335 6.69908 8.56034 6.67554L3.22673 2.14001C2.99591 1.94417 2.64556 1.96376 2.43947 2.18309C2.23338 2.40243 2.25398 2.73535 2.48481 2.93119L7.4145 7.11818L2.50542 11.4853C2.28284 11.685 2.27047 12.018 2.48069 12.2334C2.59197 12.343 2.74036 12.4018 2.88874 12.4018C3.02476 12.4018 3.16078 12.3548 3.26795 12.2608L8.25124 7.831L9.60319 8.97857C9.71037 9.06867 9.84224 9.11177 9.97412 9.11177C10.1061 9.11177 10.242 9.06476 10.3451 8.97466L11.7342 7.79182L16.6886 12.2647C16.7958 12.3627 16.9359 12.4097 17.0719 12.4097C17.2203 12.4097 17.3646 12.3548 17.4759 12.2452C17.686 12.0337 17.6778 11.6968 17.4552 11.4971L12.5626 7.08291Z" fill="white"/>
</svg>
