<svg width="14" height="20" viewBox="0 0 14 20" fill="none" xmlns="http://www.w3.org/2000/svg">
<path d="M6.99971 0.400002C3.24815 0.400002 0.199707 3.44844 0.199707 7.2C0.199707 8.77344 0.735645 10.225 1.63096 11.3766C1.63096 11.3766 1.63096 11.3781 1.63252 11.3781C2.15283 12.0797 3.21533 13.3781 4.19346 14.8109C5.17315 16.2469 6.04346 17.8313 6.1794 18.9031C6.1794 18.9047 6.1794 18.9063 6.1794 18.9078C6.23408 19.3031 6.57783 19.6 6.97627 19.6C7.37315 19.6 7.72471 19.3016 7.77315 18.9C7.90596 17.8578 8.73721 16.3375 9.6919 14.9422C10.645 13.5453 11.7013 12.2563 12.2606 11.5125C12.256 11.5172 12.2747 11.4906 12.2856 11.4797C13.231 10.3109 13.7997 8.82031 13.7997 7.2C13.7997 3.44844 10.7513 0.400002 6.99971 0.400002ZM6.99971 1.2C7.24346 1.2 7.47471 1.24375 7.71065 1.27188L4.9419 4.65313L2.79658 2.91875C3.8794 1.85781 5.35908 1.2 6.99971 1.2ZM8.6044 1.44219C10.231 1.89531 11.5653 3.00313 12.3216 4.47656L10.1794 7.09531C10.12 5.38281 8.72627 4 6.99971 4C6.7919 4 6.61065 4.08125 6.41377 4.11875L8.6044 1.44219ZM2.27939 3.52969L4.43565 5.27188L1.31689 9.08438C1.12158 8.49063 0.999707 7.86094 0.999707 7.2C0.999707 5.80938 1.48877 4.54531 2.27939 3.52969ZM6.99971 4.8C8.33252 4.8 9.39971 5.86719 9.39971 7.2C9.39971 8.53281 8.33252 9.6 6.99971 9.6C5.6669 9.6 4.59971 8.53281 4.59971 7.2C4.59971 5.86719 5.6669 4.8 6.99971 4.8ZM12.67 5.31406C12.8669 5.90938 12.9997 6.53594 12.9997 7.2C12.9997 8.63438 12.4966 9.94844 11.6606 10.9797C11.6528 10.9891 11.645 11 11.6388 11.0094C11.6653 10.9703 11.6513 10.9906 11.62 11.0313C11.0872 11.7422 10.0106 13.0563 9.0294 14.4891C8.04971 15.9234 7.14658 17.4641 6.97783 18.8016C6.97783 18.8031 6.97783 18.8031 6.97783 18.8047C6.9794 18.8031 6.98565 18.8 6.97471 18.8C6.97315 18.8 6.97158 18.8016 6.97158 18.7969C6.80752 17.5141 5.95908 16.0406 5.03096 14.6516L12.67 5.31406ZM3.81846 7.29219C3.87002 9.01094 5.26846 10.4 6.99971 10.4C7.20127 10.4 7.37783 10.3203 7.57002 10.2844L4.55908 13.9641C3.65908 12.6938 2.70127 11.4781 2.27002 10.8938C2.2669 10.8906 2.26533 10.8891 2.26377 10.8859C2.02627 10.5828 1.88408 10.2156 1.70908 9.87031L3.81846 7.29219Z" fill="white"/>
</svg>
