<svg width="30" height="30" viewBox="0 0 30 30" fill="none" xmlns="http://www.w3.org/2000/svg">
<path d="M3 4.19995C1.35 4.19995 0 5.54995 0 7.19995V22.8C0 24.45 1.35 25.8 3 25.8H27C28.65 25.8 30 24.45 30 22.8V7.19995C30 5.54995 28.65 4.19995 27 4.19995H3ZM3 5.39995H27C28.0008 5.39995 28.8 6.19917 28.8 7.19995V22.8C28.8 23.8007 28.0008 24.6 27 24.6H3C1.99922 24.6 1.2 23.8007 1.2 22.8V7.19995C1.2 6.19917 1.99922 5.39995 3 5.39995ZM10.2 7.79995C6.22969 7.79995 3 11.0296 3 15C3 18.9703 6.22969 22.2 10.2 22.2C12.0469 22.2 13.725 21.4898 15 20.3437C16.275 21.4898 17.9555 22.2 19.8 22.2C23.7703 22.2 27 18.9703 27 15C27 11.0296 23.7703 7.79995 19.8 7.79995C17.9555 7.79995 16.275 8.51011 15 9.6562C13.725 8.51011 12.0469 7.79995 10.2 7.79995ZM19.8 8.99995C23.1211 8.99995 25.8 11.6789 25.8 15C25.8 18.321 23.1211 21 19.8 21C18.2695 21 16.8656 20.4398 15.8063 19.5C16.7977 18.2648 17.4 16.7039 17.4 15C17.4 13.296 16.7977 11.7351 15.8063 10.5C16.8656 9.56011 18.2695 8.99995 19.8 8.99995Z" fill="black"/>
</svg>
