<svg width="70" height="70" viewBox="0 0 70 70" fill="none" xmlns="http://www.w3.org/2000/svg">
<path d="M18.5938 39.375H6.5625C5.40258 39.3737 4.29054 38.9123 3.47035 38.0922C2.65016 37.272 2.1888 36.1599 2.1875 35V6.5625C2.1888 5.40258 2.65016 4.29054 3.47035 3.47035C4.29054 2.65016 5.40258 2.1888 6.5625 2.1875H35C36.1599 2.1888 37.272 2.65016 38.0922 3.47035C38.9123 4.29054 39.3737 5.40258 39.375 6.5625V25.1562H37.1875V6.5625C37.1868 5.98255 36.9561 5.42655 36.546 5.01646C36.136 4.60638 35.5799 4.37569 35 4.375H6.5625C5.98255 4.37569 5.42655 4.60638 5.01646 5.01646C4.60638 5.42655 4.37569 5.98255 4.375 6.5625V35C4.37569 35.5799 4.60638 36.136 5.01646 36.546C5.42655 36.9561 5.98255 37.1868 6.5625 37.1875H18.5938V39.375Z" fill="black"/>
<path d="M16.4062 35H9.84375C9.55367 35 9.27547 34.8848 9.07035 34.6796C8.86523 34.4745 8.75 34.1963 8.75 33.9062V7.65625C8.75 7.36617 8.86523 7.08797 9.07035 6.88285C9.27547 6.67773 9.55367 6.5625 9.84375 6.5625H22.9688C25.5795 6.5625 28.0833 7.59961 29.9293 9.44567C31.7754 11.2917 32.8125 13.7955 32.8125 16.4062C32.8125 19.017 31.7754 21.5208 29.9293 23.3668C28.0833 25.2129 25.5795 26.25 22.9688 26.25H17.5V33.9062C17.5 34.1963 17.3848 34.4745 17.1796 34.6796C16.9745 34.8848 16.6963 35 16.4062 35ZM10.9375 32.8125H15.3125V25.1562C15.3125 24.8662 15.4277 24.588 15.6329 24.3829C15.838 24.1777 16.1162 24.0625 16.4062 24.0625H22.9688C24.9993 24.0625 26.9467 23.2559 28.3825 21.82C29.8184 20.3842 30.625 18.4368 30.625 16.4062C30.625 14.3757 29.8184 12.4283 28.3825 10.9925C26.9467 9.55664 24.9993 8.75 22.9688 8.75H10.9375V32.8125ZM22.9688 19.6875H16.4062C16.1162 19.6875 15.838 19.5723 15.6329 19.3671C15.4277 19.162 15.3125 18.8838 15.3125 18.5938V14.2188C15.3125 13.9287 15.4277 13.6505 15.6329 13.4454C15.838 13.2402 16.1162 13.125 16.4062 13.125H22.9688C23.839 13.125 24.6736 13.4707 25.2889 14.0861C25.9043 14.7014 26.25 15.536 26.25 16.4062C26.25 17.2765 25.9043 18.1111 25.2889 18.7264C24.6736 19.3418 23.839 19.6875 22.9688 19.6875ZM17.5 17.5H22.9688C23.2588 17.5 23.537 17.3848 23.7421 17.1796C23.9473 16.9745 24.0625 16.6963 24.0625 16.4062C24.0625 16.1162 23.9473 15.838 23.7421 15.6329C23.537 15.4277 23.2588 15.3125 22.9688 15.3125H17.5V17.5Z" fill="black"/>
<path d="M66.3984 45.1641C65.5312 44.2925 64.3623 43.7875 63.1333 43.7536L58.6604 30.335C58.3706 29.4635 57.8136 28.7055 57.0686 28.1685C56.3235 27.6316 55.4282 27.343 54.5098 27.3438H28.6152C27.6968 27.343 26.8015 27.6316 26.0564 28.1685C25.3114 28.7055 24.7544 29.4635 24.4646 30.335L19.9917 43.7536C18.7377 43.7918 17.5478 44.3168 16.6743 45.2174C15.8008 46.118 15.3124 47.3233 15.3125 48.5779V56.875C15.3138 58.0349 15.7752 59.147 16.5953 59.9672C17.4155 60.7873 18.5276 61.2487 19.6875 61.25H27.3438V65.625H20.7812V63.4375H18.5938V65.625C18.5944 66.2049 18.8251 66.761 19.2352 67.171C19.6453 67.5811 20.2013 67.8118 20.7812 67.8125H27.3438C27.9237 67.8118 28.4797 67.5811 28.8898 67.171C29.2999 66.761 29.5306 66.2049 29.5312 65.625V61.25H53.5938V65.625C53.5944 66.2049 53.8251 66.761 54.2352 67.171C54.6453 67.5811 55.2013 67.8118 55.7812 67.8125H62.3438C62.9237 67.8118 63.4797 67.5811 63.8898 67.171C64.2999 66.761 64.5306 66.2049 64.5312 65.625V61.1115C65.4698 60.8678 66.301 60.3197 66.8947 59.5531C67.4885 58.7865 67.8113 57.8447 67.8125 56.875V48.5779C67.8142 47.9437 67.6901 47.3154 67.4474 46.7294C67.2047 46.1434 66.8481 45.6114 66.3984 45.1641ZM28.6152 29.5313H54.5098C54.969 29.5309 55.4167 29.6752 55.7893 29.9438C56.1618 30.2123 56.4404 30.5913 56.5853 31.0271L56.8158 31.7188H26.3092L26.5397 31.0271C26.6846 30.5913 26.9632 30.2123 27.3357 29.9438C27.7083 29.6752 28.156 29.5309 28.6152 29.5313ZM25.5801 33.9063H57.5449L60.8262 43.75H22.2988L25.5801 33.9063ZM62.3438 65.625H55.7812V61.25H62.3438L62.3448 65.625H62.3438ZM65.625 56.875C65.6243 57.455 65.3936 58.011 64.9835 58.421C64.5735 58.8311 64.0174 59.0618 63.4375 59.0625H19.6875C19.1075 59.0618 18.5516 58.8311 18.1415 58.421C17.7314 58.011 17.5007 57.455 17.5 56.875V48.5779C17.5 47.8777 17.7782 47.2061 18.2734 46.7109C18.7686 46.2157 19.4402 45.9375 20.1404 45.9375H62.9846C63.6848 45.9375 64.3564 46.2157 64.8516 46.7109C65.3468 47.2061 65.625 47.8777 65.625 48.5779V56.875Z" fill="black"/>
<path d="M24.0625 48.125C23.1972 48.125 22.3513 48.3816 21.6319 48.8623C20.9124 49.3431 20.3517 50.0263 20.0205 50.8258C19.6894 51.6252 19.6028 52.5049 19.7716 53.3535C19.9404 54.2022 20.3571 54.9817 20.9689 55.5936C21.5808 56.2054 22.3603 56.6221 23.209 56.7909C24.0576 56.9597 24.9373 56.8731 25.7367 56.542C26.5362 56.2108 27.2195 55.6501 27.7002 54.9306C28.1809 54.2112 28.4375 53.3653 28.4375 52.5C28.4362 51.3401 27.9748 50.228 27.1547 49.4078C26.3345 48.5877 25.2224 48.1263 24.0625 48.125ZM24.0625 54.6875C23.6299 54.6875 23.2069 54.5592 22.8472 54.3188C22.4875 54.0785 22.2071 53.7368 22.0415 53.3371C21.8759 52.9374 21.8326 52.4976 21.917 52.0732C22.0014 51.6489 22.2098 51.2591 22.5157 50.9532C22.8216 50.6473 23.2114 50.4389 23.6357 50.3545C24.0601 50.2701 24.4999 50.3134 24.8996 50.479C25.2993 50.6446 25.641 50.925 25.8813 51.2847C26.1217 51.6444 26.25 52.0674 26.25 52.5C26.2493 53.0799 26.0186 53.636 25.6085 54.046C25.1985 54.4561 24.6425 54.6868 24.0625 54.6875Z" fill="black"/>
<path d="M59.0625 48.125C58.1972 48.125 57.3513 48.3816 56.6319 48.8623C55.9124 49.3431 55.3517 50.0263 55.0205 50.8258C54.6894 51.6252 54.6028 52.5049 54.7716 53.3535C54.9404 54.2022 55.3571 54.9817 55.9689 55.5936C56.5808 56.2054 57.3603 56.6221 58.209 56.7909C59.0576 56.9597 59.9373 56.8731 60.7367 56.542C61.5362 56.2108 62.2194 55.6501 62.7002 54.9306C63.1809 54.2112 63.4375 53.3653 63.4375 52.5C63.4362 51.3401 62.9748 50.228 62.1546 49.4078C61.3345 48.5877 60.2224 48.1263 59.0625 48.125ZM59.0625 54.6875C58.6298 54.6875 58.2069 54.5592 57.8472 54.3188C57.4875 54.0785 57.2071 53.7368 57.0415 53.3371C56.8759 52.9374 56.8326 52.4976 56.917 52.0732C57.0014 51.6489 57.2098 51.2591 57.5157 50.9532C57.8216 50.6473 58.2114 50.4389 58.6357 50.3545C59.0601 50.2701 59.4999 50.3134 59.8996 50.479C60.2993 50.6446 60.641 50.925 60.8813 51.2847C61.1217 51.6444 61.25 52.0674 61.25 52.5C61.2493 53.0799 61.0186 53.636 60.6085 54.046C60.1984 54.4561 59.6424 54.6868 59.0625 54.6875Z" fill="black"/>
<path d="M30.625 49.2188H52.5V51.4062H30.625V49.2188Z" fill="black"/>
<path d="M30.625 53.5938H52.5V55.7812H30.625V53.5938Z" fill="black"/>
</svg>
