<svg width="30" height="30" viewBox="0 0 30 30" fill="none" xmlns="http://www.w3.org/2000/svg">
<path d="M3 4.19995C1.35 4.19995 0 5.54995 0 7.19995V22.8C0 24.45 1.35 25.8 3 25.8H27C28.65 25.8 30 24.45 30 22.8V7.19995C30 5.54995 28.65 4.19995 27 4.19995H3ZM3 5.39995H27C28.0008 5.39995 28.8 6.19917 28.8 7.19995V22.8C28.8 23.8007 28.0008 24.6 27 24.6H3C1.99922 24.6 1.2 23.8007 1.2 22.8V7.19995C1.2 6.19917 1.99922 5.39995 3 5.39995ZM17.8125 11.6437C15.9516 11.6437 15 12.5601 15 13.725C15 15.832 17.4375 15.5484 17.4375 16.6312C17.4375 16.814 17.2969 17.25 16.275 17.25C15.2508 17.25 14.5875 16.8562 14.5875 16.8562L14.2688 18.2812C14.2688 18.2812 14.932 18.6562 16.2 18.6562C17.468 18.6562 19.2188 17.6859 19.2188 16.275C19.2188 14.5781 16.7812 14.4445 16.7812 13.6875C16.7812 13.3007 17.0813 13.0125 17.9625 13.0125C18.5344 13.0125 19.1813 13.4437 19.1813 13.4437L19.4813 11.9812C19.4813 11.9812 18.6305 11.6437 17.8125 11.6437ZM9.88125 11.775L8.26875 16.5375C8.26875 16.5375 8.15859 16.132 8.11875 15.8812C7.19766 13.814 5.7 13.05 5.7 13.05L7.125 18.45H9.075L11.775 11.775H9.88125ZM12.4688 11.775L11.4188 18.45H13.2L14.2688 11.775H12.4688ZM22.0875 11.775L19.1813 18.45H20.9438L21.3 17.4937H23.5125L23.7 18.45H25.3125L23.9438 11.775H22.0875ZM3.75 11.7937C3.75 11.7937 7.23281 12.8718 8.04375 15.4875L7.44375 12.45C7.44375 12.45 7.18594 11.7937 6.4875 11.7937H3.75ZM22.7625 13.7062L23.25 16.2187H21.7875L22.7625 13.7062Z" fill="black"/>
</svg>
