<svg width="30" height="30" viewBox="0 0 30 30" fill="none" xmlns="http://www.w3.org/2000/svg">
<path d="M14.9871 1.19995C7.37879 1.19995 1.19897 7.38511 1.19897 15C1.19897 22.6148 7.37879 28.8 14.9871 28.8C22.5953 28.8 28.7751 22.6148 28.7751 15C28.7751 7.38511 22.5953 1.19995 14.9871 1.19995ZM14.9871 2.39995C21.9467 2.39995 27.5762 8.03433 27.5762 15C27.5762 21.9656 21.9467 27.6 14.9871 27.6C8.02745 27.6 2.39794 21.9656 2.39794 15C2.39794 8.03433 8.02745 2.39995 14.9871 2.39995ZM8.99458 10.8L6.57324 10.8023C6.57324 10.8023 6.43507 10.7929 6.26881 10.8164C6.10255 10.8375 5.85433 10.8468 5.60142 11.1351H5.59908V11.1375C5.37427 11.3953 5.3813 11.6953 5.4094 11.8593C5.4375 12.0234 5.50073 12.1476 5.50073 12.1476V12.15C5.52414 12.2062 7.28044 16.514 9.49571 18.8273C11.0576 20.4609 12.7273 21 14.2143 21H14.9871C15.24 21 15.4671 20.9882 15.7177 20.857C15.9706 20.7281 16.186 20.3695 16.186 20.0882C16.186 19.7882 16.193 19.4976 16.2305 19.3335C16.268 19.1835 16.2539 19.221 16.268 19.2187C16.282 19.2234 16.3078 19.2281 16.357 19.2515C16.4647 19.3007 16.631 19.4085 16.8136 19.5492C17.1789 19.8351 17.6121 20.2476 18.0992 20.5664C18.7947 21.0281 19.5511 21 19.5511 21H22.0427L22.0684 20.9976C22.0684 20.9976 22.4525 20.9882 22.8436 20.7468C23.0403 20.6273 23.2744 20.407 23.3517 20.0742C23.4313 19.7437 23.3306 19.3968 23.1386 19.0898C23.0684 18.9796 22.7265 18.4828 21.3636 17.271C21.0123 16.9593 20.7711 16.739 20.6751 16.6195C20.6423 16.5796 20.64 16.582 20.633 16.5796C20.64 16.5609 20.7196 16.3945 20.9304 16.1203C21.1505 15.8343 21.483 15.4359 21.9115 14.8898C22.4595 14.1914 22.8436 13.521 23.0847 12.9562C23.2065 12.6726 23.2908 12.4171 23.3423 12.1828C23.3939 11.9507 23.4337 11.7585 23.3587 11.482C23.3025 11.2757 23.148 11.0929 22.9981 10.9945C22.8482 10.8984 22.7077 10.8609 22.5813 10.8398C22.3284 10.7929 22.1059 10.8 21.8998 10.8C21.4666 10.8 19.537 10.8164 19.3778 10.8164C19.1905 10.8164 18.8931 10.8937 18.7549 10.9734C18.413 11.1679 18.3053 11.4375 18.3053 11.4375L18.2725 11.496L18.2538 11.5593C18.2538 11.5593 17.8135 12.982 17.3616 13.7156C16.83 14.5781 16.4342 14.9203 16.2586 15.0187C16.2422 15.0281 16.2516 15.0234 16.2375 15.0304C16.2258 14.9906 16.2071 14.9343 16.1954 14.8335C16.172 14.6062 16.186 14.2851 16.186 13.9734C16.186 13.1132 16.2516 12.5765 16.179 12.0679C16.1439 11.8148 16.0525 11.5312 15.8441 11.3132C15.6357 11.0953 15.3688 10.9875 15.0995 10.9265H15.0971C14.8185 10.8632 14.5187 10.807 13.7928 10.8C12.8725 10.7906 12.2707 10.821 11.7367 11.0578L11.7321 11.0625L11.7274 11.0648C11.5166 11.1632 11.3504 11.2757 11.2028 11.4281C11.1302 11.5031 11.0436 11.5593 10.9827 11.8007C10.9546 11.9226 10.9499 12.15 11.0857 12.3351C11.2239 12.5203 11.4136 12.5765 11.526 12.5906C11.5073 12.5882 11.615 12.6117 11.6993 12.6539C11.7859 12.696 11.8585 12.757 11.8772 12.7804V12.7828C11.8702 12.771 11.9498 12.9726 11.9709 13.1578C11.9943 13.3429 11.9896 13.4906 11.9896 13.4906L11.9873 13.5257L11.992 13.5632C11.992 13.5632 12.0295 13.971 12.0084 14.3906C11.999 14.6015 11.9733 14.8148 11.9381 14.9437C11.9358 14.9507 11.9358 14.9484 11.9334 14.9531C11.7836 14.85 11.437 14.4843 10.9593 13.6945C10.519 12.9656 10.1069 11.6554 10.1069 11.6554L10.0975 11.625L10.0858 11.5968C10.0858 11.5968 10.0109 11.3062 9.669 11.0648C9.35052 10.8421 9.04844 10.8093 9.04844 10.8093L8.99458 10.8ZM8.85408 12C8.8892 12.0117 8.95946 12.0375 8.97351 12.0445L8.95946 12.0023L8.97819 12.0445C8.97819 12.0468 8.98053 12.0468 8.98053 12.0468V12.0492C8.95243 12.0257 8.97819 12.0468 8.98053 12.0539C8.99692 12.1101 9.36223 13.371 9.93361 14.3179C10.4558 15.1781 10.8399 15.6609 11.259 15.9492C11.6805 16.2351 12.2449 16.207 12.5306 16.057C12.9146 15.8578 13.02 15.5296 13.0949 15.2578C13.1699 14.9859 13.1956 14.7093 13.2073 14.4468C13.2308 13.9476 13.191 13.5398 13.1863 13.4976C13.1886 13.4765 13.1933 13.282 13.1629 13.0171C13.1324 12.7523 13.0762 12.4242 12.842 12.0937C13.1043 12.0539 13.2518 11.9953 13.7811 12C14.4602 12.007 14.5632 12.0351 14.8278 12.096C14.973 12.1289 14.9894 12.157 14.9754 12.1429C14.9636 12.1289 14.9754 12.1195 14.9917 12.2343C15.0245 12.4687 14.9871 13.0664 14.9871 13.9734C14.9871 14.2289 14.9613 14.5898 15.0035 14.9671C15.0479 15.3445 15.165 15.8273 15.6193 16.1085C15.8793 16.2703 16.3757 16.3265 16.844 16.064C17.3124 15.8039 17.7924 15.3046 18.3826 14.3437C18.9657 13.3968 19.3146 12.1523 19.352 12.0187C19.352 12.0187 19.3591 12.0164 19.3637 12.0117C19.3755 12.014 19.3614 12.014 19.3778 12.014C19.6003 12.014 21.4947 12 21.8998 12C22.0122 12 22.0614 12.007 22.1434 12.0093C22.1106 12.1382 22.0638 12.2906 21.9818 12.4828C21.7874 12.9398 21.4526 13.5328 20.9678 14.1492C20.5533 14.6812 20.2278 15.0656 19.9796 15.3867C19.7337 15.7101 19.5394 15.9632 19.4574 16.3312C19.3755 16.6992 19.5324 17.1117 19.7431 17.3742C19.9539 17.639 20.2161 17.8593 20.5674 18.1687C21.8858 19.3429 22.1036 19.6968 22.1223 19.7296C22.1457 19.7671 22.1317 19.7296 22.1387 19.7484C22.0661 19.7718 21.9771 19.7976 21.9677 19.8H19.537C19.537 19.8 19.0921 19.7859 18.7596 19.5656V19.5632H18.7572C18.4083 19.3335 17.9845 18.9398 17.5489 18.6023C17.3311 18.4335 17.1087 18.2742 16.8511 18.157C16.5958 18.0421 16.268 17.9601 15.9261 18.0609C15.4296 18.2109 15.1533 18.6843 15.0643 19.0593C15.0011 19.3289 15.0105 19.5632 15.0081 19.7976C14.9917 19.8 15.0081 19.8 14.9871 19.8H14.2143C12.9966 19.8 11.7297 19.4273 10.3622 17.9976C8.58478 16.139 6.99943 12.546 6.76057 12H8.85408ZM19.3122 12.0046C19.3005 12.007 19.331 12.0093 19.3567 12.0117C19.3544 12.014 19.3567 12.0093 19.352 12.0117C19.352 12.0023 19.3263 12.0023 19.3122 12.0046Z" fill="black"/>
</svg>
