<svg width="37" height="37" viewBox="0 0 37 37" fill="none" xmlns="http://www.w3.org/2000/svg">
<path d="M18.5 1.48C9.10837 1.48 1.48001 9.10836 1.48001 18.5C1.48001 27.8916 9.10837 35.52 18.5 35.52C27.8917 35.52 35.52 27.8916 35.52 18.5C35.52 9.10836 27.8917 1.48 18.5 1.48ZM18.5 2.96C27.0909 2.96 34.04 9.90906 34.04 18.5C34.04 27.0909 27.0909 34.04 18.5 34.04C9.90907 34.04 2.96001 27.0909 2.96001 18.5C2.96001 9.90906 9.90907 2.96 18.5 2.96ZM11.1029 13.32L8.114 13.3229C8.114 13.3229 7.94345 13.3113 7.73821 13.3402C7.53298 13.3662 7.22657 13.3778 6.91439 13.7334H6.9115V13.7362C6.634 14.0542 6.64267 14.4242 6.67736 14.6266C6.71204 14.8289 6.79009 14.9821 6.79009 14.9821V14.985C6.819 15.0544 8.98696 20.3673 11.7215 23.2204C13.6495 25.2352 15.7106 25.9 17.5461 25.9H18.5C18.8122 25.9 19.0926 25.8855 19.4019 25.7237C19.7141 25.5647 19.98 25.1224 19.98 24.7755C19.98 24.4055 19.9887 24.0471 20.0349 23.8448C20.0812 23.6598 20.0638 23.706 20.0812 23.7031C20.0985 23.7089 20.1303 23.7147 20.191 23.7436C20.324 23.8043 20.5292 23.9373 20.7547 24.1107C21.2056 24.4634 21.7404 24.9721 22.3417 25.3652C23.2002 25.9347 24.1338 25.9 24.1338 25.9H27.2095L27.2413 25.8971C27.2413 25.8971 27.7153 25.8855 28.1981 25.5878C28.4409 25.4404 28.7299 25.1687 28.8253 24.7582C28.9236 24.3506 28.7993 23.9228 28.5623 23.5441C28.4756 23.4083 28.0535 22.7955 26.3712 21.301C25.9376 20.9166 25.6399 20.6448 25.5213 20.4974C25.4809 20.4483 25.478 20.4512 25.4693 20.4483C25.478 20.4252 25.5763 20.2199 25.8364 19.8817C26.1081 19.5291 26.5186 19.0377 27.0476 18.3641C27.724 17.5027 28.1981 16.676 28.4958 15.9794C28.6461 15.6296 28.7502 15.3145 28.8138 15.0255C28.8774 14.7393 28.9265 14.5023 28.834 14.1612C28.7646 13.9068 28.5738 13.6813 28.3888 13.5599C28.2038 13.4414 28.0304 13.3952 27.8743 13.3691C27.5621 13.3113 27.2875 13.32 27.0331 13.32C26.4984 13.32 24.1165 13.3402 23.9199 13.3402C23.6887 13.3402 23.3216 13.4356 23.151 13.5339C22.729 13.7738 22.596 14.1062 22.596 14.1062L22.5556 14.1785L22.5324 14.2566C22.5324 14.2566 21.989 16.0112 21.4311 16.9159C20.7749 17.9797 20.2864 18.4017 20.0696 18.5231C20.0494 18.5347 20.0609 18.5289 20.0436 18.5376C20.0292 18.4884 20.006 18.4191 19.9916 18.2948C19.9627 18.0144 19.98 17.6184 19.98 17.2339C19.98 16.173 20.0609 15.5111 19.9713 14.8838C19.928 14.5716 19.8152 14.2219 19.558 13.953C19.3007 13.6842 18.9712 13.5512 18.6388 13.4761H18.6359C18.2919 13.398 17.9219 13.3287 17.0258 13.32C15.8898 13.3084 15.1469 13.346 14.4878 13.638L14.482 13.6437L14.4763 13.6466C14.2161 13.768 14.0109 13.9068 13.8288 14.0947C13.7392 14.1872 13.6322 14.2566 13.557 14.5543C13.5224 14.7046 13.5166 14.985 13.6842 15.2134C13.8548 15.4417 14.0889 15.5111 14.2277 15.5284C14.2045 15.5255 14.3375 15.5544 14.4416 15.6065C14.5485 15.6585 14.6381 15.7337 14.6613 15.7626V15.7655C14.6526 15.751 14.7509 15.9996 14.7769 16.228C14.8058 16.4563 14.8 16.6384 14.8 16.6384L14.7971 16.6818L14.8029 16.728C14.8029 16.728 14.8492 17.231 14.8231 17.7484C14.8116 18.0086 14.7798 18.2716 14.7364 18.4306C14.7335 18.4393 14.7335 18.4364 14.7306 18.4422C14.5456 18.315 14.1178 17.8641 13.5281 16.8899C12.9847 15.9909 12.4759 14.3751 12.4759 14.3751L12.4644 14.3375L12.4499 14.3028C12.4499 14.3028 12.3574 13.9444 11.9354 13.6466C11.5423 13.372 11.1694 13.3316 11.1694 13.3316L11.1029 13.32ZM10.9295 14.8C10.9728 14.8144 11.0595 14.8462 11.0769 14.8549L11.0595 14.8029L11.0827 14.8549C11.0827 14.8578 11.0856 14.8578 11.0856 14.8578V14.8607C11.0509 14.8318 11.0827 14.8578 11.0856 14.8665C11.1058 14.9359 11.5567 16.491 12.262 17.6588C12.9067 18.7197 13.3807 19.3152 13.8981 19.6707C14.4184 20.0234 15.1151 19.9887 15.4677 19.8037C15.9418 19.558 16.0719 19.1533 16.1644 18.818C16.2569 18.4827 16.2887 18.1416 16.3031 17.8178C16.332 17.2021 16.2829 16.6991 16.2771 16.6471C16.28 16.6211 16.2858 16.3812 16.2482 16.0545C16.2106 15.7279 16.1413 15.3232 15.8522 14.9156C16.1759 14.8665 16.3581 14.7942 17.0113 14.8C17.8496 14.8087 17.9768 14.8434 18.3034 14.9185C18.4827 14.959 18.5029 14.9937 18.4856 14.9763C18.4711 14.959 18.4856 14.9474 18.5058 15.0891C18.5463 15.3781 18.5 16.1152 18.5 17.2339C18.5 17.549 18.4682 17.9941 18.5202 18.4595C18.5752 18.9249 18.7197 19.5204 19.2805 19.8673C19.6013 20.0667 20.2142 20.1361 20.7923 19.8123C21.3704 19.4915 21.963 18.8758 22.6914 17.6906C23.4112 16.5228 23.8419 14.9879 23.8881 14.8231C23.8881 14.8231 23.8968 14.8202 23.9026 14.8144C23.917 14.8173 23.8997 14.8173 23.9199 14.8173C24.1945 14.8173 26.5331 14.8 27.0331 14.8C27.1719 14.8 27.2326 14.8087 27.3338 14.8116C27.2933 14.9705 27.2355 15.1584 27.1343 15.3955C26.8944 15.9591 26.481 16.6905 25.8827 17.4507C25.371 18.1069 24.9692 18.5809 24.6628 18.9769C24.3593 19.3759 24.1194 19.688 24.0182 20.1419C23.917 20.5957 24.1107 21.1044 24.3709 21.4282C24.631 21.7548 24.9548 22.0266 25.3884 22.4081C27.0158 23.8563 27.2846 24.2928 27.3077 24.3333C27.3367 24.3795 27.3193 24.3333 27.328 24.3564C27.2384 24.3853 27.1285 24.4171 27.117 24.42H24.1165C24.1165 24.42 23.5673 24.4027 23.1568 24.1309V24.128H23.1539C22.7232 23.8448 22.2 23.3591 21.6624 22.9429C21.3935 22.7348 21.1189 22.5382 20.8009 22.3937C20.4859 22.252 20.0812 22.1509 19.6592 22.2752C19.0463 22.4602 18.7052 23.0441 18.5954 23.5066C18.5174 23.839 18.5289 24.128 18.526 24.4171C18.5058 24.42 18.526 24.42 18.5 24.42H17.5461C16.043 24.42 14.4792 23.9604 12.791 22.1971C10.597 19.9048 8.64009 15.4735 8.34525 14.8H10.9295ZM23.839 14.8058C23.8245 14.8087 23.8621 14.8116 23.8939 14.8144C23.891 14.8173 23.8939 14.8116 23.8881 14.8144C23.8881 14.8029 23.8563 14.8029 23.839 14.8058Z" fill="white"/>
</svg>
