<svg width="40" height="40" viewBox="0 0 40 40" fill="none" xmlns="http://www.w3.org/2000/svg">
<path d="M30.1611 0H9.83894C7.8798 0 6.28589 1.59398 6.28589 3.55312V33.8781C6.28589 35.8373 7.8798 37.4313 9.83894 37.4313H10.2803V38.8177C10.2803 39.4706 10.8096 40 11.4625 40C12.1154 40 12.6448 39.4706 12.6448 38.8177V37.4313H27.3558V38.8177C27.3558 39.4706 27.8852 40 28.5381 40C29.191 40 29.7203 39.4706 29.7203 38.8177V37.4313H30.1612C32.1203 37.4313 33.7142 35.8373 33.7142 33.8781V3.55312C33.7142 1.59398 32.1203 0 30.1611 0ZM8.65034 3.55312C8.65034 2.89773 9.18355 2.36445 9.83894 2.36445H18.818V27.8816H8.65034V3.55312ZM31.3497 33.8781C31.3497 34.5335 30.8165 35.0668 30.1611 35.0668H9.83894C9.18355 35.0668 8.65034 34.5335 8.65034 33.8781V30.2463H31.3496V33.8781H31.3497ZM31.3497 27.8817H21.1825V2.36453H30.1611C30.8165 2.36453 31.3497 2.89781 31.3497 3.5532V27.8817Z" fill="black"/>
<path d="M16.861 12.301C16.2081 12.301 15.6787 12.8304 15.6787 13.4833V16.763C15.6787 17.4159 16.208 17.9452 16.861 17.9452C17.5139 17.9452 18.0432 17.4159 18.0432 16.763V13.4833C18.0432 12.8303 17.5139 12.301 16.861 12.301Z" fill="black"/>
<path d="M23.1395 12.301C22.4866 12.301 21.9573 12.8304 21.9573 13.4833V16.763C21.9573 17.4159 22.4866 17.9453 23.1395 17.9453C23.7924 17.9453 24.3218 17.4159 24.3218 16.7631V13.4833C24.3218 12.8303 23.7924 12.301 23.1395 12.301Z" fill="black"/>
<path d="M21.3398 31.4742H18.66C18.0072 31.4742 17.4778 32.0036 17.4778 32.6565C17.4778 33.3094 18.0072 33.8388 18.66 33.8388H21.3398C21.9927 33.8388 22.5221 33.3094 22.5221 32.6565C22.522 32.0035 21.9927 31.4742 21.3398 31.4742Z" fill="black"/>
</svg>
