<svg width="70" height="70" viewBox="0 0 70 70" fill="none" xmlns="http://www.w3.org/2000/svg">
<g clip-path="url(#clip0_346_2180)">
<path d="M69.6751 22.6238C50.572 3.47012 19.5589 3.42914 0.405296 22.5323C0.374769 22.5628 0.344242 22.5933 0.313715 22.6238C-0.114079 23.0668 -0.101812 23.7728 0.341175 24.2006C0.77329 24.618 1.4584 24.618 1.89052 24.2006C20.1252 5.91966 49.7269 5.88216 68.0079 24.1169C68.0359 24.1447 68.0638 24.1728 68.0916 24.2006C68.5271 24.6379 69.2345 24.6394 69.6718 24.204C70.1091 23.7685 70.1105 23.0611 69.6751 22.6238Z" fill="black"/>
<path d="M63.3706 28.9278C55.863 21.3726 45.6449 17.1351 34.9938 17.1598C24.3427 17.1351 14.1246 21.3726 6.61694 28.9278C6.18914 29.3708 6.20141 30.0768 6.6444 30.5046C7.07651 30.9219 7.76162 30.9219 8.19374 30.5046C22.969 15.7034 46.9455 15.6824 61.7469 30.4576C61.7626 30.4732 61.7782 30.489 61.7938 30.5046C62.2368 30.9325 62.9427 30.9203 63.3706 30.4773C63.788 30.045 63.788 29.3599 63.3706 28.9278Z" fill="black"/>
<path d="M57.06 35.2395C51.2254 29.3584 43.2779 26.0599 34.9937 26.0809C26.7095 26.0599 18.7621 29.3584 12.9274 35.2395C12.4922 35.6755 12.4931 36.3818 12.9291 36.8169C13.3651 37.2519 14.0714 37.2512 14.5065 36.8152C25.7873 25.5003 44.1048 25.4729 55.4195 36.7537C55.44 36.7742 55.4605 36.7947 55.481 36.8152C55.9162 37.2512 56.6224 37.2519 57.0584 36.8169C57.4944 36.3817 57.4951 35.6755 57.06 35.2395Z" fill="black"/>
<path d="M50.7585 41.5401C46.5877 37.3425 40.911 34.9882 34.9938 35.002C29.0766 34.9882 23.3999 37.3425 19.2291 41.5401C18.8012 41.983 18.8135 42.6889 19.2564 43.1169C19.6886 43.5342 20.3737 43.5342 20.8059 43.1169C28.6268 35.2811 41.319 35.2691 49.1548 43.09C49.1637 43.0989 49.1728 43.1078 49.1817 43.1169C49.6247 43.5448 50.3305 43.5325 50.7585 43.0895C51.1758 42.6574 51.1758 41.9722 50.7585 41.5401Z" fill="black"/>
<path d="M44.4827 47.8652C44.4738 47.856 44.4648 47.847 44.4556 47.8381C41.9483 45.3259 38.543 43.9167 34.9936 43.9229C31.4443 43.9167 28.039 45.3259 25.5317 47.8381C25.0876 48.2648 25.0735 48.9707 25.5002 49.4148C25.9269 49.8589 26.6328 49.873 27.0769 49.4463C27.0861 49.4375 27.0951 49.4284 27.1041 49.4192C31.4623 45.0641 38.525 45.0641 42.8832 49.4192C43.3124 49.861 44.0184 49.871 44.4602 49.4418C44.9019 49.0126 44.9119 48.3069 44.4827 47.8652Z" fill="black"/>
<path d="M38.1494 54.1555C38.1483 54.1543 38.1473 54.1534 38.1462 54.1523C36.3832 52.4652 33.6043 52.4652 31.8412 54.1523C30.0984 55.8933 30.097 58.7176 31.838 60.4604C33.579 62.2033 36.4034 62.2047 38.1462 60.4636C39.889 58.7225 39.8904 55.8983 38.1494 54.1555ZM34.9937 59.535C33.7619 59.535 32.7635 58.5366 32.7635 57.3047C32.7635 56.0729 33.7619 55.0745 34.9937 55.0745C36.2255 55.0745 37.224 56.0729 37.224 57.3047C37.224 58.5366 36.2254 59.535 34.9937 59.535Z" fill="black"/>
</g>
<defs>
<clipPath id="clip0_346_2180">
<rect width="70" height="70" fill="white"/>
</clipPath>
</defs>
</svg>
